HIERARCHY
ROOT hip
{
  OFFSET 0.00112043 5.09927 -9.65472
  CHANNELS 6 Xposition Yposition Zposition Zrotation Xrotation Yrotation
  JOINT abdomen
  {
    OFFSET 0 -1.186 -1.5018
    CHANNELS 3 Zrotation Xrotation Yrotation
    JOINT abdomen2
    {
      OFFSET 0 9.964 0.2134
      CHANNELS 3 Zrotation Xrotation Yrotation
      JOINT chest
      {
        OFFSET 0 13.134 -3.2573
        CHANNELS 3 Zrotation Xrotation Yrotation
        JOINT neck
        {
          OFFSET 0 20.686 -1.6905
          CHANNELS 3 Zrotation Xrotation Yrotation
          JOINT head
          {
            OFFSET 0 7.238 -0.1237
            CHANNELS 3 Zrotation Xrotation Yrotation
            End Site
            {
              OFFSET 0 0 0
            }
          }
        }
        JOINT lCollar
        {
          OFFSET 1.7069 20.075 5.0056
          CHANNELS 3 Zrotation Xrotation Yrotation
          JOINT lShldr
          {
            OFFSET 13.6458 -0.047 -4.849
            CHANNELS 3 Zrotation Xrotation Yrotation
            JOINT lForeArm
            {
              OFFSET 28.3255 -0.9759 2.2888
              CHANNELS 3 Zrotation Xrotation Yrotation
              JOINT lHand
              {
                OFFSET 22.1583 -0.53 10.8316
                CHANNELS 3 Zrotation Xrotation Yrotation
                JOINT lThumb1
                {
                  OFFSET 0.786 0.112 2.5817
                  CHANNELS 3 Zrotation Xrotation Yrotation
                  JOINT lThumb2
                  {
                    OFFSET 0.3601 -0.878 4.2331
                    CHANNELS 3 Zrotation Xrotation Yrotation
                    JOINT lThumb2_End
                    {
                      OFFSET 1.8127 -1.216 2.2227
                      CHANNELS 3 Zrotation Xrotation Yrotation
                      End Site
                      {
                        OFFSET 0.0181 -0.0122 0.0222
                      }
                    }
                  }
                }
                JOINT lCarpal1
                {
                  OFFSET 0.9571 1.114 1.7695
                  CHANNELS 3 Zrotation Xrotation Yrotation
                  JOINT lIndex1
                  {
                    OFFSET 4.1246 0.487 4.1451
                    CHANNELS 3 Zrotation Xrotation Yrotation
                    JOINT lIndex2
                    {
                      OFFSET 3.4052 -1.454 2.7682
                      CHANNELS 3 Zrotation Xrotation Yrotation
                      JOINT lIndex2_End
                      {
                        OFFSET 1.4531 -1.795 1.2713
                        CHANNELS 3 Zrotation Xrotation Yrotation
                        End Site
                        {
                          OFFSET 0.0145 -0.0179 0.0127
                        }
                      }
                    }
                  }
                  JOINT lMid1
                  {
                    OFFSET 5.6954 0.21 2.1184
                    CHANNELS 3 Zrotation Xrotation Yrotation
                    JOINT lMid2
                    {
                      OFFSET 3.9766 -1.54 2.3863
                      CHANNELS 3 Zrotation Xrotation Yrotation
                      JOINT lMid2_End
                      {
                        OFFSET 1.4042 -1.926 1.125
                        CHANNELS 3 Zrotation Xrotation Yrotation
                        End Site
                        {
                          OFFSET 0.014 -0.0193 0.0113
                        }
                      }
                    }
                  }
                }
                JOINT lCarpal2
                {
                  OFFSET 2.0956 0.66 -0.3894
                  CHANNELS 3 Zrotation Xrotation Yrotation
                  JOINT lRing1
                  {
                    OFFSET 5.0395 -0.09 2.4971
                    CHANNELS 3 Zrotation Xrotation Yrotation
                    JOINT lRing2
                    {
                      OFFSET 3.7921 -1.552 1.4806
                      CHANNELS 3 Zrotation Xrotation Yrotation
                      JOINT lRing2_End
                      {
                        OFFSET 1.4655 -1.808 0.9609
                        CHANNELS 3 Zrotation Xrotation Yrotation
                        End Site
                        {
                          OFFSET 0.0147 -0.0181 0.0096
                        }
                      }
                    }
                  }
                  JOINT lPinky1
                  {
                    OFFSET 4.9141 -1.269 0.3591
                    CHANNELS 3 Zrotation Xrotation Yrotation
                    JOINT lPinky2
                    {
                      OFFSET 3.1477 -1.685 0.8462
                      CHANNELS 3 Zrotation Xrotation Yrotation
                      JOINT lPinky2_End
                      {
                        OFFSET 0.8055 -1.585 0.7955
                        CHANNELS 3 Zrotation Xrotation Yrotation
                        End Site
                        {
                          OFFSET 0.0081 -0.0158 0.008
                        }
                      }
                    }
                  }
                }
              }
            }
          }
        }
        JOINT rCollar
        {
          OFFSET -1.7069 20.075 5.0056
          CHANNELS 3 Zrotation Xrotation Yrotation
          JOINT rShldr
          {
            OFFSET -13.6458 -0.047 -4.849
            CHANNELS 3 Zrotation Xrotation Yrotation
            JOINT rForeArm
            {
              OFFSET -28.3255 -0.9759 2.2888
              CHANNELS 3 Zrotation Xrotation Yrotation
              JOINT rHand
              {
                OFFSET -22.1583 -0.53 10.8316
                CHANNELS 3 Zrotation Xrotation Yrotation
                JOINT rThumb1
                {
                  OFFSET -0.786 0.112 2.5817
                  CHANNELS 3 Zrotation Xrotation Yrotation
                  JOINT rThumb2
                  {
                    OFFSET -0.3601 -0.878 4.2331
                    CHANNELS 3 Zrotation Xrotation Yrotation
                    JOINT rThumb2_End
                    {
                      OFFSET -1.8127 -1.216 2.2227
                      CHANNELS 3 Zrotation Xrotation Yrotation
                      End Site
                      {
                        OFFSET -0.0181 -0.0122 0.0222
                      }
                    }
                  }
                }
                JOINT rCarpal1
                {
                  OFFSET -0.9571 1.114 1.7695
                  CHANNELS 3 Zrotation Xrotation Yrotation
                  JOINT rIndex1
                  {
                    OFFSET -4.1246 0.487 4.1451
                    CHANNELS 3 Zrotation Xrotation Yrotation
                    JOINT rIndex2
                    {
                      OFFSET -3.4052 -1.454 2.7682
                      CHANNELS 3 Zrotation Xrotation Yrotation
                      JOINT rIndex2_End
                      {
                        OFFSET -1.4531 -1.795 1.2713
                        CHANNELS 3 Zrotation Xrotation Yrotation
                        End Site
                        {
                          OFFSET -0.0145 -0.018 0.0127
                        }
                      }
                    }
                  }
                  JOINT rMid1
                  {
                    OFFSET -5.6954 0.21 2.1184
                    CHANNELS 3 Zrotation Xrotation Yrotation
                    JOINT rMid2
                    {
                      OFFSET -3.9766 -1.54 2.3863
                      CHANNELS 3 Zrotation Xrotation Yrotation
                      JOINT rMid2_End
                      {
                        OFFSET -1.4042 -1.926 1.125
                        CHANNELS 3 Zrotation Xrotation Yrotation
                        End Site
                        {
                          OFFSET -0.014 -0.0193 0.0113
                        }
                      }
                    }
                  }
                }
                JOINT rCarpal2
                {
                  OFFSET -2.0956 0.66 -0.3894
                  CHANNELS 3 Zrotation Xrotation Yrotation
                  JOINT rRing1
                  {
                    OFFSET -5.0395 -0.09 2.4971
                    CHANNELS 3 Zrotation Xrotation Yrotation
                    JOINT rRing2
                    {
                      OFFSET -3.7921 -1.552 1.4806
                      CHANNELS 3 Zrotation Xrotation Yrotation
                      JOINT rRing2_End
                      {
                        OFFSET -1.4655 -1.808 0.9609
                        CHANNELS 3 Zrotation Xrotation Yrotation
                        End Site
                        {
                          OFFSET -0.0147 -0.0181 0.0096
                        }
                      }
                    }
                  }
                  JOINT rPinky1
                  {
                    OFFSET -4.9141 -1.269 0.3592
                    CHANNELS 3 Zrotation Xrotation Yrotation
                    JOINT rPinky2
                    {
                      OFFSET -3.1477 -1.685 0.8462
                      CHANNELS 3 Zrotation Xrotation Yrotation
                      JOINT rPinky2_End
                      {
                        OFFSET -0.8055 -1.585 0.7955
                        CHANNELS 3 Zrotation Xrotation Yrotation
                        End Site
                        {
                          OFFSET -0.0081 -0.0158 0.008
                        }
                      }
                    }
                  }
                }
              }
            }
          }
        }
      }
    }
  }
  JOINT lThigh
  {
    OFFSET 8.367 -8.2066 0.5982
    CHANNELS 3 Zrotation Xrotation Yrotation
    JOINT lShin
    {
      OFFSET 2.1923 -43.463 -0.4932
      CHANNELS 3 Zrotation Xrotation Yrotation
      JOINT lFoot
      {
        OFFSET 0.7333 -45.8593 -2.6451
        CHANNELS 3 Zrotation Xrotation Yrotation
        End Site
        {
          OFFSET 2.6618 -4.2699 12.3931
        }
      }
    }
  }
  JOINT rThigh
  {
    OFFSET -8.367 -8.2066 0.5982
    CHANNELS 3 Zrotation Xrotation Yrotation
    JOINT rShin
    {
      OFFSET -2.1923 -43.463 -0.4931
      CHANNELS 3 Zrotation Xrotation Yrotation
      JOINT rFoot
      {
        OFFSET -0.7333 -45.8593 -2.6451
        CHANNELS 3 Zrotation Xrotation Yrotation
        End Site
        {
          OFFSET -2.6618 -4.2699 12.3931
        }
      }
    }
  }
}
MOTION
Frames:	4
Frame Time:	0.0333333
0 91.7903 2.51682 0 0 -0 0 0 -0 0 0 -0 0 0 -0 0 0 -0 -0 0 0.00300229 0 0 -0 1.66051 0.0835086 5.75766 -0.0175111 0.895433 15.7816 7.95139e-016 -1.98785e-016 -0 5.46658e-016 -3.97569e-016 -0 5.96354e-016 0 -0 3.97569e-016 1.98785e-016 9.54166e-015 1.49089e-016 -3.97569e-016 -0 6.4605e-016 0 3.18055e-015 5.96354e-016 0 3.18055e-015 8.94531e-016 -1.98785e-016 6.36111e-015 6.4605e-016 0 3.18055e-015 5.96354e-016 0 3.18055e-015 8.94531e-016 -1.98785e-016 6.36111e-015 1.49089e-016 -3.97569e-016 -0 6.4605e-016 0 3.18055e-015 5.96354e-016 0 3.18055e-015 8.94531e-016 -1.98785e-016 6.36111e-015 6.4605e-016 0 3.18055e-015 5.96354e-016 0 3.18055e-015 8.94531e-016 -1.98785e-016 6.36111e-015 0 0 -0 -1.4496 0.0636048 -5.0245 -1.74811 1.20616 -16.8394 -1.19271e-015 1.98785e-016 -3.18055e-015 -3.97569e-016 1.98785e-016 -3.18055e-015 -2.98177e-016 1.98785e-016 -3.18055e-015 -2.98177e-016 3.97569e-016 -0 4.96962e-016 0 -6.36111e-015 -9.93923e-017 3.97569e-016 -0 -8.94531e-016 5.96354e-016 -0 -3.97569e-016 3.97569e-016 -0 -9.93923e-017 3.97569e-016 -0 -8.94531e-016 5.96354e-016 -0 -3.97569e-016 3.97569e-016 -0 4.96962e-016 0 -6.36111e-015 -9.93923e-017 3.97569e-016 -0 -8.94531e-016 5.96354e-016 -0 -3.97569e-016 3.97569e-016 -0 -9.93923e-017 3.97569e-016 -0 -8.94531e-016 5.96354e-016 -0 -3.97569e-016 3.97569e-016 -0 -4.66111 -0.998717 0.12318 0.00986924 1.54847 0.176523 4.65186 -0.572283 -0.254274 4.66111 -0.998765 -0.123176 -0.00986867 1.54869 -0.176537 -4.65186 -0.572453 0.25427 
0.691552 32.2134 17.7695 -8.38072e-015 -11.0008 180 -0.0325999 1.1181 -0.0427397 -0.0643838 2.2362 -0.0848672 -0.0643839 2.2362 -0.0848673 4.65836e-006 -0.000151648 5.822e-006 -5.8591e-009 6.79916e-006 0.0030023 -25.6102 -10.6216 -25.3403 -22.7729 7.607 -31.5169 -33.3011 70.1814 12.9108 70.5811 -35.1502 14.6166 -3.97569e-016 3.46631e-015 7.95139e-016 3.97569e-016 6.62201e-015 -7.95139e-016 2.37321e-006 1.18255e-007 -4.30475e-007 -3.97569e-016 3.46631e-015 7.95139e-016 -3.97569e-016 1.61388e-014 -0 0 6.60959e-015 -0 2.37321e-006 1.18255e-007 -4.30475e-007 -3.97569e-016 1.61388e-014 -0 0 6.60959e-015 -0 2.37321e-006 1.18255e-007 -4.30475e-007 -3.97569e-016 3.46631e-015 7.95139e-016 -3.97569e-016 1.61388e-014 -0 0 6.60959e-015 -0 2.37321e-006 1.18255e-007 -4.30475e-007 -3.97569e-016 1.61388e-014 -0 0 6.60959e-015 -0 2.37321e-006 1.18255e-007 -4.30475e-007 25.8177 -11.0443 24.0396 21.0674 6.50158 38.8148 36.4641 69.5437 -13.5105 -71.6245 -33.1614 -16.611 1.59028e-015 -6.95746e-015 -1.59028e-015 4.0142e-007 1.75686e-006 -6.1552e-007 7.95139e-016 -3.97569e-016 -0 1.19271e-015 -3.77691e-015 -0 1.98785e-015 1.54058e-014 1.59028e-015 4.0142e-007 1.75686e-006 -6.1552e-007 3.97569e-016 1.98785e-016 -1.59028e-015 1.98785e-015 1.54058e-014 1.59028e-015 4.0142e-007 1.75686e-006 -6.1552e-007 3.97569e-016 1.98785e-016 -1.59028e-015 1.19271e-015 -3.77691e-015 -0 1.98785e-015 1.54058e-014 1.59028e-015 4.0142e-007 1.75686e-006 -6.1552e-007 3.97569e-016 1.98785e-016 -1.59028e-015 1.98785e-015 1.54058e-014 1.59028e-015 4.0142e-007 1.75686e-006 -6.1552e-007 3.97569e-016 1.98785e-016 -1.59028e-015 136.849 -44.9401 153.691 129.25 69.013 -128.883 -1.51106 1.8127 9.11663 -136.845 -44.9215 -153.703 -129.226 68.9869 128.86 1.50693 1.80784 -9.13756 
0.69154 32.018 17.766 -8.22648e-015 -9.78235 180 -0.0335345 1.72421 -0.0417072 -0.0658574 3.44847 -0.0824603 -0.0658573 3.44846 -0.0824602 -0.0340187 0.0783159 -0.0420566 -0.0285729 0.0687661 0.00300233 -24.8506 -12.9143 -25.6152 -22.7729 7.607 -31.5169 -35.9907 71.3041 12.6712 70.6653 -33.5857 14.8999 -3.97569e-016 5.2181e-015 -0 2.61276e-006 1.47913e-006 4.72902e-006 -6.20706e-033 -4.47266e-016 -7.95139e-016 -3.97569e-016 1.98785e-015 -0 -1.98785e-015 8.15017e-015 -0 2.61276e-006 1.47913e-006 4.72902e-006 -7.95139e-016 5.61567e-015 -7.95139e-016 -1.98785e-015 8.15017e-015 -0 2.61276e-006 1.47913e-006 4.72902e-006 -7.95139e-016 5.61567e-015 -7.95139e-016 -3.97569e-016 1.98785e-015 -0 -1.98785e-015 8.15017e-015 -0 2.61276e-006 1.47913e-006 4.72902e-006 -7.95139e-016 5.61567e-015 -7.95139e-016 -1.98785e-015 8.15017e-015 -0 2.61276e-006 1.47913e-006 4.72902e-006 -7.95139e-016 5.61567e-015 -7.95139e-016 25.3939 -13.014 24.4595 21.0674 6.50158 38.8148 38.8764 69.3294 -13.9774 -71.8891 -31.986 -16.9104 1.22213e-006 2.81117e-006 -1.32202e-006 9.26181e-007 -6.10064e-007 4.23444e-007 2.50837e-006 -5.46362e-007 4.73679e-006 -9.79335e-032 -3.52843e-015 -1.59028e-015 1.22213e-006 2.81117e-006 -1.32202e-006 9.26181e-007 -6.10064e-007 4.23444e-007 2.50837e-006 -5.46362e-007 4.73679e-006 1.22213e-006 2.81117e-006 -1.32202e-006 9.26181e-007 -6.10064e-007 4.23444e-007 2.50837e-006 -5.46362e-007 4.73679e-006 -9.79335e-032 -3.52843e-015 -1.59028e-015 1.22213e-006 2.81117e-006 -1.32202e-006 9.26181e-007 -6.10064e-007 4.23444e-007 2.50837e-006 -5.46362e-007 4.73679e-006 1.22213e-006 2.81117e-006 -1.32202e-006 9.26181e-007 -6.10064e-007 4.23444e-007 2.50837e-006 -5.46362e-007 4.73679e-006 135.678 -44.9848 152.621 129.937 68.748 -129.492 -0.89631 1.8666 8.50315 -135.673 -44.9666 -152.634 -129.909 68.7219 129.464 0.891888 1.86123 -8.52435 
0.691521 31.821 17.7628 -8.0734e-015 -8.56419 180 -0.0344708 2.33211 -0.0406429 -0.0673683 4.66425 -0.0799797 -0.0673683 4.66425 -0.0799797 -0.067968 0.156145 -0.0840705 -0.0571512 0.137539 0.00603817 -24.0897 -15.2257 -25.8629 -22.7729 7.60701 -31.5169 -38.5661 72.5543 12.3238 70.7392 -32.0159 15.1765 1.27186e-006 -1.10467e-006 -2.17967e-007 -9.78926e-007 1.36093e-006 -5.15833e-007 2.82862e-007 -4.89067e-007 -3.90285e-006 -3.97569e-016 8.10048e-015 -3.18055e-015 1.27186e-006 -1.10467e-006 -2.17967e-007 -9.78926e-007 1.36093e-006 -5.15833e-007 2.82862e-007 -4.89067e-007 -3.90285e-006 1.27186e-006 -1.10467e-006 -2.17967e-007 -9.78926e-007 1.36093e-006 -5.15833e-007 2.82862e-007 -4.89067e-007 -3.90285e-006 -3.97569e-016 8.10048e-015 -3.18055e-015 1.27186e-006 -1.10467e-006 -2.17967e-007 -9.78926e-007 1.36093e-006 -5.15833e-007 2.82862e-007 -4.89067e-007 -3.90285e-006 1.27186e-006 -1.10467e-006 -2.17967e-007 -9.78926e-007 1.36093e-006 -5.15833e-007 2.82862e-007 -4.89067e-007 -3.90285e-006 24.9792 -14.9973 24.8702 21.0674 6.50158 38.8148 41.3204 69.0728 -14.4695 -72.1437 -30.8075 -17.2002 1.11417e-006 -1.25842e-006 -2.4336e-007 1.81551e-006 4.84954e-007 -2.9915e-007 5.57083e-007 -6.29212e-007 -1.2168e-007 -0 -5.61567e-015 -0 1.11417e-006 -1.25842e-006 -2.4336e-007 1.81551e-006 4.84954e-007 -2.9915e-007 5.57083e-007 -6.29212e-007 -1.2168e-007 1.11417e-006 -1.25842e-006 -2.4336e-007 1.81551e-006 4.84954e-007 -2.9915e-007 5.57083e-007 -6.29212e-007 -1.2168e-007 -0 -5.61567e-015 -0 1.11417e-006 -1.25842e-006 -2.4336e-007 1.81551e-006 4.84954e-007 -2.9915e-007 5.57083e-007 -6.29212e-007 -1.2168e-007 1.11417e-006 -1.25842e-006 -2.4336e-007 1.81551e-006 4.84954e-007 -2.9915e-007 5.57083e-007 -6.29212e-007 -1.2168e-007 134.499 -45.0117 151.545 130.609 68.4798 -130.088 -0.281965 1.91316 7.88852 -134.495 -44.9938 -151.558 -130.577 68.4538 130.055 0.277311 1.90722 -7.91003 
